<svg width="1922" height="937" viewBox="0 0 1922 937" fill="none" xmlns="http://www.w3.org/2000/svg">
<path d="M769.238 383L777.321 407.184L803.476 407.184L782.316 422.131L790.398 446.316L769.238 431.369L748.078 446.316L756.16 422.131L735 407.184L761.156 407.184L769.238 383Z" fill="#F4F901"/>
<path d="M308.238 511.5L316.321 535.684H342.476L321.316 550.631L329.398 574.816L308.238 559.869L287.078 574.816L295.16 550.631L274 535.684H300.156L308.238 511.5Z" fill="#F4F901"/>
<path d="M1581.24 508L1589.32 532.184L1615.48 532.184L1594.32 547.131L1602.4 571.316L1581.24 556.369L1560.08 571.316L1568.16 547.131L1547 532.184L1573.16 532.184L1581.24 508Z" fill="#F4F901"/>
<path d="M1120.24 636.5L1128.32 660.684H1154.48L1133.32 675.631L1141.4 699.816L1120.24 684.869L1099.08 699.816L1107.16 675.631L1086 660.684H1112.16L1120.24 636.5Z" fill="#F4F901"/>
<path d="M1250.24 469L1258.32 493.184L1284.48 493.184L1263.32 508.131L1271.4 532.316L1250.24 517.369L1229.08 532.316L1237.16 508.131L1216 493.184L1242.16 493.184L1250.24 469Z" fill="#F4F901"/>
<path d="M789.238 597.5L797.321 621.684H823.476L802.316 636.631L810.398 660.816L789.238 645.869L768.078 660.816L776.16 636.631L755 621.684H781.156L789.238 597.5Z" fill="#F4F901"/>
<path d="M600.238 95L608.321 119.184L634.476 119.184L613.316 134.131L621.398 158.316L600.238 143.369L579.078 158.316L587.16 134.131L566 119.184L592.156 119.184L600.238 95Z" fill="#F4F901"/>
<path d="M139.238 223.5L147.321 247.684H173.476L152.316 262.631L160.398 286.816L139.238 271.869L118.078 286.816L126.16 262.631L105 247.684H131.156L139.238 223.5Z" fill="#F4F901"/>
<path d="M1764.24 112L1772.32 136.184L1798.48 136.184L1777.32 151.131L1785.4 175.316L1764.24 160.369L1743.08 175.316L1751.16 151.131L1730 136.184L1756.16 136.184L1764.24 112Z" fill="#F4F901"/>
<path d="M1303.24 240.5L1311.32 264.684H1337.48L1316.32 279.631L1324.4 303.816L1303.24 288.869L1282.08 303.816L1290.16 279.631L1269 264.684H1295.16L1303.24 240.5Z" fill="#F4F901"/>
<path d="M556.238 575L564.321 599.184L590.476 599.184L569.316 614.131L577.398 638.316L556.238 623.369L535.078 638.316L543.16 614.131L522 599.184L548.156 599.184L556.238 575Z" fill="#F4F901"/>
<path d="M95.238 703.5L103.321 727.684H129.476L108.316 742.631L116.398 766.816L95.238 751.869L74.0778 766.816L82.1603 742.631L61 727.684H87.1555L95.238 703.5Z" fill="#F4F901"/>
<path d="M1779.24 671L1787.32 695.184L1813.48 695.184L1792.32 710.131L1800.4 734.316L1779.24 719.369L1758.08 734.316L1766.16 710.131L1745 695.184L1771.16 695.184L1779.24 671Z" fill="#F4F901"/>
<path d="M1318.24 799.5L1326.32 823.684H1352.48L1331.32 838.631L1339.4 862.816L1318.24 847.869L1297.08 862.816L1305.16 838.631L1284 823.684H1310.16L1318.24 799.5Z" fill="#F4F901"/>
<path d="M1002.24 152L1010.32 176.184L1036.48 176.184L1015.32 191.131L1023.4 215.316L1002.24 200.369L981.078 215.316L989.16 191.131L968 176.184L994.156 176.184L1002.24 152Z" fill="#F4F901"/>
<path d="M541.238 280.5L549.321 304.684H575.476L554.316 319.631L562.398 343.816L541.238 328.869L520.078 343.816L528.16 319.631L507 304.684H533.156L541.238 280.5Z" fill="#F4F901"/>
<path d="M1002.24 152L1010.32 176.184L1036.48 176.184L1015.32 191.131L1023.4 215.316L1002.24 200.369L981.078 215.316L989.16 191.131L968 176.184L994.156 176.184L1002.24 152Z" fill="#F4F901"/>
<path d="M541.238 280.5L549.321 304.684H575.476L554.316 319.631L562.398 343.816L541.238 328.869L520.078 343.816L528.16 319.631L507 304.684H533.156L541.238 280.5Z" fill="#F4F901"/>
</svg>
