<svg width="1440" height="937" viewBox="0 0 1922 937" fill="none" xmlns="http://www.w3.org/2000/svg">
<g filter="url(#filter0_d_3_6)">
<path d="M371.445 107.36L391.858 151.038H457.916L404.474 178.032L424.887 221.709L371.445 194.715L318.003 221.709L338.416 178.032L284.974 151.038H351.032L371.445 107.36Z" fill="#F4F901"/>
<path d="M1567.1 90.6773L1587.51 134.355H1653.57L1600.13 161.349L1620.54 205.026L1567.1 178.032L1513.66 205.026L1534.07 161.349L1480.63 134.355H1546.69L1567.1 90.6773Z" fill="#F4F901"/>
<path d="M284.974 594.5L305.387 638.177H371.445L318.003 665.171L338.416 708.849L284.974 681.855L231.532 708.849L251.945 665.171L198.503 638.177H264.561L284.974 594.5Z" fill="#F4F901"/>
<path d="M1060.96 221.709L1081.37 265.386H1147.43L1093.99 292.38L1114.4 336.058L1060.96 309.064L1007.52 336.058L1027.93 292.38L974.488 265.386H1040.55L1060.96 221.709Z" fill="#F4F901"/>
<path d="M1501.04 725.014L1521.45 768.691H1587.51L1534.07 795.686L1554.48 839.363L1501.04 812.369L1447.6 839.363L1468.01 795.686L1414.57 768.691H1480.63L1501.04 725.014Z" fill="#F4F901"/>
<path d="M829.385 812.829L849.797 856.506H915.855L862.414 883.5L882.826 927.177L829.385 900.183L775.943 927.177L796.355 883.5L742.914 856.506H808.971L829.385 812.829Z" fill="#F4F901"/>
<path d="M371.445 108.541L391.405 151.249L391.539 151.538H391.858H455.817L404.248 177.585L403.815 177.804L404.021 178.243L423.821 220.611L371.67 194.269L371.445 194.155L371.219 194.269L319.068 220.611L338.869 178.243L339.074 177.804L338.641 177.585L287.072 151.538H351.032H351.35L351.484 151.249L371.445 108.541ZM1567.1 91.8582L1587.06 134.566L1587.19 134.855H1587.51H1651.47L1599.9 160.902L1599.47 161.121L1599.68 161.56L1619.48 203.928L1567.33 177.585L1567.1 177.472L1566.87 177.585L1514.72 203.928L1534.52 161.56L1534.73 161.121L1534.3 160.902L1482.73 134.855H1546.69H1547L1547.14 134.566L1567.1 91.8582ZM305.387 638.677H369.346L317.777 664.725L317.344 664.944L317.55 665.383L337.351 707.751L285.199 681.408L284.974 681.294L284.748 681.408L232.597 707.751L252.398 665.383L252.603 664.944L252.17 664.725L200.602 638.677H264.561H264.879L265.014 638.389L284.974 595.681L304.934 638.389L305.069 638.677H305.387ZM1060.96 222.89L1080.92 265.598L1081.05 265.886H1081.37H1145.33L1093.76 291.934L1093.33 292.153L1093.53 292.592L1113.34 334.96L1061.18 308.617L1060.96 308.503L1060.73 308.617L1008.58 334.96L1028.38 292.592L1028.59 292.153L1028.16 291.934L976.587 265.886H1040.55H1040.86L1041 265.598L1060.96 222.89ZM1521.45 769.191H1585.41L1533.85 795.239L1533.41 795.458L1533.62 795.897L1553.42 838.265L1501.27 811.923L1501.04 811.809L1500.82 811.923L1448.67 838.265L1468.47 795.897L1468.67 795.458L1468.24 795.239L1416.67 769.191H1480.63H1480.95L1481.08 768.903L1501.04 726.195L1521 768.903L1521.14 769.191H1521.45ZM829.385 814.01L849.345 856.718L849.479 857.006H849.797H913.757L862.188 883.054L861.755 883.272L861.961 883.712L881.761 926.079L829.61 899.737L829.385 899.623L829.159 899.737L777.008 926.079L796.808 883.712L797.014 883.272L796.581 883.054L745.012 857.006H808.971H809.29L809.424 856.718L829.385 814.01Z" stroke="black"/>
</g>
<defs>
<filter id="filter0_d_3_6" x="194.503" y="90.6773" width="1463.07" height="844.5" filterUnits="userSpaceOnUse" color-interpolation-filters="sRGB">
<feFlood flood-opacity="0" result="BackgroundImageFix"/>
<feColorMatrix in="SourceAlpha" type="matrix" values="0 0 0 0 0 0 0 0 0 0 0 0 0 0 0 0 0 0 127 0" result="hardAlpha"/>
<feOffset dy="4"/>
<feGaussianBlur stdDeviation="2"/>
<feComposite in2="hardAlpha" operator="out"/>
<feColorMatrix type="matrix" values="0 0 0 0 0 0 0 0 0 0 0 0 0 0 0 0 0 0 0.25 0"/>
<feBlend mode="normal" in2="BackgroundImageFix" result="effect1_dropShadow_3_6"/>
<feBlend mode="normal" in="SourceGraphic" in2="effect1_dropShadow_3_6" result="shape"/>
</filter>
</defs>
</svg>
