<svg width="1916" height="1117" viewBox="0 0 1916 1117" fill="none" xmlns="http://www.w3.org/2000/svg">
<g filter="url(#filter0_d_3_6)">
<path d="M137.522 87.3545L157.003 131.032H220.044L169.043 158.026L188.523 201.703L137.522 174.709L86.5213 201.703L106.002 158.026L55.001 131.032H118.042L137.522 87.3545Z" fill="#F4F901"/>
<path d="M1687.82 70.6713L1707.31 114.349H1770.35L1719.34 141.343L1738.83 185.02L1687.82 158.026L1636.82 185.02L1656.3 141.343L1605.3 114.349H1668.34L1687.82 70.6713Z" fill="#F4F901"/>
<path d="M86.5214 748.685L106.002 792.363H169.043L118.042 819.357L137.522 863.034L86.5214 836.04L35.5203 863.034L55.001 819.357L4 792.363H67.0407L86.5214 748.685Z" fill="#F4F901"/>
<path d="M1072.98 383.329L1092.46 427.006H1155.5L1104.5 454L1123.98 497.677L1072.98 470.683L1021.98 497.677L1041.46 454L990.457 427.006H1053.5L1072.98 383.329Z" fill="#F4F901"/>
<path d="M1829.28 950.849L1848.76 994.526H1911.8L1860.8 1021.52L1880.28 1065.2L1829.28 1038.2L1778.28 1065.2L1797.76 1021.52L1746.76 994.526H1809.8L1829.28 950.849Z" fill="#F4F901"/>
<path d="M781.5 994.526L800.981 1038.2H864.021L813.02 1065.2L832.501 1108.87L781.5 1081.88L730.499 1108.87L749.98 1065.2L698.979 1038.2H762.019L781.5 994.526Z" fill="#F4F901"/>
<path d="M137.522 88.582L156.546 131.235L156.678 131.532H157.003H218.03L168.809 157.584L168.396 157.803L168.586 158.229L187.476 200.583L137.756 174.267L137.522 174.143L137.288 174.267L87.5683 200.583L106.459 158.229L106.649 157.803L106.236 157.584L57.0145 131.532H118.042H118.366L118.498 131.235L137.522 88.582ZM1687.82 71.8988L1706.85 114.552L1706.98 114.849H1707.31H1768.33L1719.11 140.901L1718.7 141.119L1718.89 141.546L1737.78 183.9L1688.06 157.584L1687.82 157.46L1687.59 157.584L1637.87 183.9L1656.76 141.546L1656.95 141.119L1656.54 140.901L1607.32 114.849H1668.34H1668.67L1668.8 114.552L1687.82 71.8988ZM106.002 792.863H167.029L117.808 818.915L117.395 819.133L117.585 819.56L136.475 861.914L86.7553 835.598L86.5214 835.474L86.2875 835.598L36.5673 861.914L55.4576 819.56L55.648 819.133L55.2349 818.915L6.01346 792.863H67.0407H67.3652L67.4973 792.566L86.5214 749.913L105.545 792.566L105.678 792.863H106.002ZM1072.98 384.556L1092 427.21L1092.13 427.506H1092.46H1153.49L1104.27 453.558L1103.85 453.777L1104.04 454.204L1122.93 496.557L1073.21 470.241L1072.98 470.117L1072.74 470.241L1023.02 496.557L1041.91 454.204L1042.11 453.777L1041.69 453.558L992.471 427.506H1053.5H1053.82L1053.95 427.21L1072.98 384.556ZM1848.76 995.026H1909.79L1860.57 1021.08L1860.16 1021.3L1860.35 1021.72L1879.24 1064.08L1829.52 1037.76L1829.28 1037.64L1829.05 1037.76L1779.33 1064.08L1798.22 1021.72L1798.41 1021.3L1798 1021.08L1748.77 995.026H1809.8H1810.13L1810.26 994.729L1829.28 952.076L1848.31 994.729L1848.44 995.026H1848.76ZM781.5 995.753L800.524 1038.41L800.656 1038.7H800.981H862.008L812.786 1064.76L812.373 1064.97L812.564 1065.4L831.454 1107.75L781.734 1081.44L781.5 1081.31L781.266 1081.44L731.546 1107.75L750.436 1065.4L750.627 1064.97L750.214 1064.76L700.992 1038.7H762.019H762.344L762.476 1038.41L781.5 995.753Z" stroke="black"/>
</g>
<defs>
<filter id="filter0_d_3_6" x="0" y="70.6713" width="1915.8" height="1046.2" filterUnits="userSpaceOnUse" color-interpolation-filters="sRGB">
<feFlood flood-opacity="0" result="BackgroundImageFix"/>
<feColorMatrix in="SourceAlpha" type="matrix" values="0 0 0 0 0 0 0 0 0 0 0 0 0 0 0 0 0 0 127 0" result="hardAlpha"/>
<feOffset dy="4"/>
<feGaussianBlur stdDeviation="2"/>
<feComposite in2="hardAlpha" operator="out"/>
<feColorMatrix type="matrix" values="0 0 0 0 0 0 0 0 0 0 0 0 0 0 0 0 0 0 0.25 0"/>
<feBlend mode="normal" in2="BackgroundImageFix" result="effect1_dropShadow_3_6"/>
<feBlend mode="normal" in="SourceGraphic" in2="effect1_dropShadow_3_6" result="shape"/>
</filter>
</defs>
</svg>
