<svg width="624" height="296" viewBox="0 0 624 296" fill="none" xmlns="http://www.w3.org/2000/svg">
<rect width="624" height="296" fill="#D9D9D9"/>
<path d="M73.0717 171.013V158.539L100.184 115.818H111.268V132.751H104.838L88.9709 157.893V158.41H128.234V171.013H73.0717ZM105.032 182V167.2L105.355 161.738V115.818H120.317V182H105.032ZM163.991 183.616C158.217 183.616 153.241 182.248 149.061 179.512C144.882 176.754 141.661 172.801 139.399 167.652C137.137 162.482 136.017 156.266 136.038 149.006C136.06 141.746 137.191 135.584 139.431 130.522C141.693 125.437 144.903 121.57 149.061 118.92C153.241 116.249 158.217 114.913 163.991 114.913C169.765 114.913 174.741 116.249 178.921 118.92C183.122 121.57 186.353 125.437 188.615 130.522C190.877 135.606 191.998 141.767 191.976 149.006C191.976 156.288 190.845 162.514 188.583 167.684C186.321 172.855 183.1 176.808 178.921 179.544C174.763 182.259 169.786 183.616 163.991 183.616ZM163.991 170.528C167.438 170.528 170.228 168.772 172.361 165.261C174.493 161.728 175.549 156.309 175.528 149.006C175.528 144.223 175.043 140.281 174.073 137.179C173.104 134.055 171.757 131.728 170.034 130.199C168.31 128.669 166.296 127.904 163.991 127.904C160.566 127.904 157.797 129.638 155.686 133.107C153.575 136.554 152.508 141.854 152.487 149.006C152.465 153.853 152.928 157.871 153.876 161.06C154.846 164.248 156.203 166.629 157.948 168.201C159.693 169.752 161.707 170.528 163.991 170.528ZM226.473 182.905C221.647 182.905 217.36 182.032 213.611 180.287C209.863 178.542 206.9 176.14 204.724 173.081C202.57 170.022 201.45 166.51 201.364 162.546H216.875C217.004 164.981 217.995 166.941 219.848 168.428C221.701 169.893 223.909 170.625 226.473 170.625C228.476 170.625 230.254 170.183 231.805 169.3C233.356 168.417 234.573 167.178 235.456 165.584C236.34 163.968 236.77 162.115 236.749 160.026C236.77 157.893 236.329 156.029 235.424 154.435C234.541 152.841 233.313 151.602 231.74 150.719C230.189 149.814 228.401 149.362 226.376 149.362C224.458 149.34 222.638 149.76 220.914 150.622C219.212 151.484 217.92 152.658 217.037 154.144L202.915 151.494L205.791 115.818H248.253V128.712H218.943L217.424 144.32H217.812C218.911 142.489 220.677 140.981 223.112 139.796C225.568 138.59 228.358 137.987 231.482 137.987C235.446 137.987 238.979 138.913 242.081 140.766C245.205 142.597 247.661 145.139 249.449 148.392C251.259 151.645 252.163 155.372 252.163 159.573C252.163 164.119 251.086 168.147 248.932 171.659C246.799 175.171 243.804 177.928 239.948 179.932C236.113 181.914 231.622 182.905 226.473 182.905ZM280.625 182V115.818H325.802V128.809H296.621V142.381H322.926V155.404H296.621V182H280.625ZM353.383 182.937C348.17 182.937 343.688 181.871 339.94 179.738C336.213 177.584 333.337 174.589 331.312 170.754C329.308 166.898 328.306 162.428 328.306 157.343C328.306 152.238 329.308 147.767 331.312 143.933C333.337 140.076 336.213 137.082 339.94 134.949C343.688 132.795 348.17 131.717 353.383 131.717C358.597 131.717 363.067 132.795 366.794 134.949C370.543 137.082 373.419 140.076 375.422 143.933C377.447 147.767 378.46 152.238 378.46 157.343C378.46 162.428 377.447 166.898 375.422 170.754C373.419 174.589 370.543 177.584 366.794 179.738C363.067 181.871 358.597 182.937 353.383 182.937ZM353.48 171.013C355.376 171.013 356.981 170.431 358.295 169.268C359.609 168.104 360.611 166.489 361.3 164.42C362.011 162.352 362.367 159.961 362.367 157.246C362.367 154.489 362.011 152.076 361.3 150.008C360.611 147.94 359.609 146.324 358.295 145.161C356.981 143.997 355.376 143.415 353.48 143.415C351.52 143.415 349.861 143.997 348.503 145.161C347.168 146.324 346.144 147.94 345.434 150.008C344.744 152.076 344.399 154.489 344.399 157.246C344.399 159.961 344.744 162.352 345.434 164.42C346.144 166.489 347.168 168.104 348.503 169.268C349.861 170.431 351.52 171.013 353.48 171.013ZM418.579 160.575V132.364H434.349V182H419.29V172.758H418.773C417.674 175.795 415.8 178.208 413.15 179.996C410.522 181.763 407.344 182.646 403.617 182.646C400.235 182.646 397.262 181.871 394.698 180.32C392.135 178.768 390.142 176.603 388.72 173.824C387.298 171.024 386.576 167.749 386.555 164V132.364H402.357V160.898C402.379 163.591 403.089 165.713 404.49 167.264C405.89 168.815 407.797 169.591 410.21 169.591C411.782 169.591 413.193 169.246 414.443 168.557C415.714 167.846 416.716 166.823 417.448 165.487C418.202 164.13 418.579 162.492 418.579 160.575ZM460.21 153.692V182H444.407V132.364H459.434V141.477H459.983C461.082 138.439 462.956 136.058 465.606 134.335C468.256 132.59 471.412 131.717 475.075 131.717C478.565 131.717 481.592 132.504 484.155 134.076C486.74 135.627 488.744 137.803 490.166 140.604C491.609 143.383 492.32 146.636 492.299 150.363V182H476.496V153.466C476.518 150.708 475.818 148.554 474.396 147.002C472.996 145.451 471.046 144.676 468.547 144.676C466.888 144.676 465.423 145.042 464.152 145.775C462.902 146.485 461.933 147.509 461.244 148.844C460.576 150.18 460.231 151.796 460.21 153.692ZM520.211 182.711C516.549 182.711 513.22 181.763 510.226 179.867C507.231 177.971 504.84 175.128 503.052 171.336C501.263 167.544 500.369 162.837 500.369 157.214C500.369 151.376 501.296 146.572 503.149 142.801C505.001 139.031 507.425 136.241 510.419 134.432C513.436 132.622 516.678 131.717 520.146 131.717C522.753 131.717 524.983 132.17 526.836 133.075C528.688 133.958 530.218 135.1 531.424 136.5C532.631 137.9 533.546 139.355 534.171 140.863H534.494V115.818H550.297V182H534.656V173.953H534.171C533.503 175.483 532.555 176.916 531.328 178.251C530.1 179.587 528.559 180.664 526.706 181.483C524.875 182.302 522.71 182.711 520.211 182.711ZM525.705 170.399C527.622 170.399 529.259 169.86 530.617 168.783C531.974 167.684 533.019 166.144 533.751 164.162C534.484 162.18 534.85 159.853 534.85 157.182C534.85 154.467 534.484 152.13 533.751 150.169C533.04 148.209 531.995 146.701 530.617 145.645C529.259 144.59 527.622 144.062 525.705 144.062C523.744 144.062 522.085 144.6 520.728 145.678C519.371 146.755 518.337 148.274 517.626 150.234C516.936 152.194 516.592 154.51 516.592 157.182C516.592 159.853 516.947 162.18 517.658 164.162C518.369 166.144 519.392 167.684 520.728 168.783C522.085 169.86 523.744 170.399 525.705 170.399Z" fill="rgb(191, 178, 3)"/>
</svg>
